<?xml version="1.0" encoding="UTF-8"?>
<svg width="12px" height="20px" viewBox="0 0 12 20" version="1.1" xmlns="http://www.w3.org/2000/svg" xmlns:xlink="http://www.w3.org/1999/xlink">
    <!-- Generator: Sketch 52.2 (67145) - http://www.bohemiancoding.com/sketch -->
    <title>Shape</title>
    <desc>Created with Sketch.</desc>
    <g id="登录注册" stroke="none" stroke-width="1" fill="none" fill-rule="evenodd" opacity="0.300000012">
        <g id="注册-" transform="translate(-540.000000, -359.000000)" fill="#000000" fill-rule="nonzero">
            <g id="Content">
                <g id="Form" transform="translate(465.000000, 88.000000)">
                    <g id="Input---Phone" transform="translate(50.000000, 256.000000)">
                        <g id="Content" transform="translate(25.000000, 9.000000)">
                            <path d="M10.4579151,6 L1.54208494,6 C0.688803089,6 0,6.65301363 0,7.4568909 L0,24.5445667 C0,25.3477152 0.688803089,26 1.54208494,26 L10.4579151,26 C11.3096525,26 12,25.3477152 12,24.5445667 L12,7.4568909 C12,6.65301363 11.3096525,6 10.4579151,6 Z M3.8,6.88477516 L8.2015444,6.88477516 C8.31274131,6.88477516 8.4030888,7.04146928 8.4030888,7.2353327 C8.4030888,7.42919612 8.31274131,7.58661905 8.2015444,7.58661905 L3.8,7.58661905 C3.68803089,7.58661905 3.5992278,7.42919612 3.5992278,7.2353327 C3.5992278,7.04146928 3.68803089,6.88477516 3.8,6.88477516 Z M6.0007722,24.5620582 C5.45791506,24.5620582 5.01621622,24.1451789 5.01621622,23.6320968 C5.01621622,23.1190146 5.45791506,22.703593 6.0007722,22.703593 C6.54208494,22.703593 6.98378378,23.1190146 6.98378378,23.6320968 C6.98378378,24.1451789 6.54208494,24.5620582 6.0007722,24.5620582 Z M10.8447876,21.3778879 L1.15598456,21.3778879 L1.15598456,8.45827564 L10.8447876,8.45827564 L10.8447876,21.3778879 Z" id="Shape"></path>
                        </g>
                    </g>
                </g>
            </g>
        </g>
    </g>
</svg>