<?xml version="1.0" encoding="UTF-8"?>
<svg width="21px" height="26px" viewBox="0 0 21 26" version="1.1" xmlns="http://www.w3.org/2000/svg" xmlns:xlink="http://www.w3.org/1999/xlink">
    <!-- Generator: Sketch 52.2 (67145) - http://www.bohemiancoding.com/sketch -->
    <title>Group 3</title>
    <desc>Created with Sketch.</desc>
    <g id="常见问题-" stroke="none" stroke-width="1" fill="none" fill-rule="evenodd">
        <g id="Common-Problem" transform="translate(-1062.000000, -25.000000)">
            <g id="Group-5-Copy">
                <g id="Top-Header-Copy">
                    <g id="Navigation" transform="translate(333.000000, 0.000000)">
                        <g id="Item-5" transform="translate(637.000000, 0.000000)">
                            <g id="Group-3" transform="translate(92.000000, 19.000000)">
                                <path d="M10.4999707,32 C9.11873484,32 7.99994141,30.6575339 8,29 L13,29 C13,30.6575339 11.8812066,32 10.4999707,32 Z M18.3750385,24 L21,26.6666875 L21,28 L0,28 L0,26.6666875 L2.62502307,24 L2.62502307,17.333375 C2.62502307,13.233375 4.77096267,9.813375 8.53127884,8.9066875 L8.53127884,8 C8.53127884,6.8933125 9.41063419,6 10.5000308,6 C11.5894273,6 12.4687827,6.8933125 12.4687827,8 L12.4687827,8.906625 C16.2290989,9.8133125 18.3750385,13.2333125 18.3750385,17.3333125 L18.3750385,24 Z" id="Notification" fill="#FFFFFF" fill-rule="nonzero"></path>
                                <g id="Group" transform="translate(13.000000, 0.000000)"></g>
                            </g>
                        </g>
                    </g>
                </g>
            </g>
        </g>
    </g>
</svg>