<?xml version="1.0" encoding="UTF-8"?>
<svg width="18px" height="30px" viewBox="0 0 18 30" version="1.1" xmlns="http://www.w3.org/2000/svg" xmlns:xlink="http://www.w3.org/1999/xlink">
    <!-- Generator: Sketch 52.2 (67145) - http://www.bohemiancoding.com/sketch -->
    <title>Icon</title>
    <desc>Created with Sketch.</desc>
    <g id="我的账户" stroke="none" stroke-width="1" fill="none" fill-rule="evenodd" opacity="0.300000012">
        <g id="Commission-Withdrawal---Fund-Details---Security-Center" transform="translate(-278.000000, -381.000000)" fill="#000000" fill-rule="nonzero">
            <g id="Main-Content" transform="translate(245.000000, 90.000000)">
                <g id="Actions" transform="translate(0.000000, 127.000000)">
                    <g id="Phone-Verification" transform="translate(0.000000, 126.000000)">
                        <g id="Icon" transform="translate(33.000000, 38.000000)">
                            <path d="M15.6868726,0 L2.31312741,0 C1.03320463,0 0,0.979520443 0,2.18533635 L0,27.8168501 C0,29.0215728 1.03320463,30 2.31312741,30 L15.6868726,30 C16.9644788,30 18,29.0215728 18,27.8168501 L18,2.18533635 C18,0.979520443 16.9644788,0 15.6868726,0 Z M5.7,1.32716274 L12.3023166,1.32716274 C12.469112,1.32716274 12.6046332,1.56220392 12.6046332,1.85299905 C12.6046332,2.14379418 12.469112,2.37992858 12.3023166,2.37992858 L5.7,2.37992858 C5.53204633,2.37992858 5.3988417,2.14379418 5.3988417,1.85299905 C5.3988417,1.56220392 5.53204633,1.32716274 5.7,1.32716274 Z M9.0011583,27.8430872 C8.18687259,27.8430872 7.52432432,27.2177684 7.52432432,26.4481452 C7.52432432,25.678522 8.18687259,25.0553895 9.0011583,25.0553895 C9.81312741,25.0553895 10.4756757,25.678522 10.4756757,26.4481452 C10.4756757,27.2177684 9.81312741,27.8430872 9.0011583,27.8430872 Z M16.2671815,23.0668319 L1.73397683,23.0668319 L1.73397683,3.68741345 L16.2671815,3.68741345 L16.2671815,23.0668319 Z" id="Shape"></path>
                        </g>
                    </g>
                </g>
            </g>
        </g>
    </g>
</svg>