<?xml version="1.0" encoding="UTF-8"?>
<svg width="17px" height="29px" viewBox="0 0 17 29" version="1.1" xmlns="http://www.w3.org/2000/svg" xmlns:xlink="http://www.w3.org/1999/xlink">
    <!-- Generator: Sketch 52.2 (67145) - http://www.bohemiancoding.com/sketch -->
    <title>Fill 1</title>
    <desc>Created with Sketch.</desc>
    <g id="常见问题-" stroke="none" stroke-width="1" fill="none" fill-rule="evenodd">
        <g id="Common-Problem" transform="translate(-997.000000, -21.000000)" fill="#FFFFFF">
            <g id="Group-5-Copy">
                <path d="M1012.38095,24.2222222 L998.619048,24.2222222 L998.619048,45.1666667 L1012.37292,45.1666667 L1012.37292,24.2222222 L1012.38095,24.2222222 Z M1005.09557,48.3888889 C1005.5467,48.3888889 1005.90476,48.0256638 1005.90476,47.5836629 C1005.90476,47.1410029 1005.53975,46.7777778 1005.09557,46.7777778 C1004.65073,46.7777778 1004.28571,47.1410029 1004.28571,47.5836629 C1004.28571,48.0256638 1004.65073,48.3888889 1005.09557,48.3888889 Z M1012.50216,50 L998.497837,50 C997.670881,50 997,49.328698 997,48.5021345 L997,22.4978655 C997,21.671302 997.670881,21 998.497837,21 L1012.50216,21 C1013.32871,21 1014,21.671302 1014,22.4978655 L1014,48.5021345 C1014,49.328698 1013.32871,50 1012.50216,50 Z" id="Fill-1"></path>
            </g>
        </g>
    </g>
</svg>