<?xml version="1.0" encoding="UTF-8"?>
<svg width="15px" height="20px" viewBox="0 0 15 20" version="1.1" xmlns="http://www.w3.org/2000/svg" xmlns:xlink="http://www.w3.org/1999/xlink">
    <!-- Generator: Sketch 52.2 (67145) - http://www.bohemiancoding.com/sketch -->
    <title>User</title>
    <desc>Created with Sketch.</desc>
    <g id="登录注册" stroke="none" stroke-width="1" fill="none" fill-rule="evenodd">
        <g id="注册-" transform="translate(-539.000000, -222.000000)" fill="#ffffff" fill-rule="nonzero">
            <g id="Content">
                <g id="Form" transform="translate(465.000000, 88.000000)">
                    <g id="Content" transform="translate(74.000000, 128.000000)">
                        <path d="M7.49641892,15.7813143 C5.30468342,15.7813143 3.52785478,13.5917143 3.52785478,10.8906857 C3.52785478,8.1896 4.11132636,6 7.49641892,6 C10.8815115,6 11.4648704,8.1896 11.4648704,10.8906857 C11.4648704,13.5917143 9.68804177,15.7813143 7.49641892,15.7813143 Z M0.00569032888,23.5807755 C-0.00416560985,23.352341 0.000762359514,22.7700019 0.00569032888,23.5807755 Z M14.9917195,23.6444436 C15.0073248,23.518866 14.9970582,22.7731994 14.9917195,23.6444436 Z M14.9832716,23.0512571 C14.9879461,23.3522286 14.9904242,23.4042857 14.9916632,23.3774286 C14.9914942,23.4572 14.9913816,23.5744571 14.9913816,23.7430857 C14.9913816,23.7430857 13.8878544,26 7.4963626,26 C1.10475817,26 0.00134358446,23.7430857 0.00134358446,23.7430857 C0.00134358446,23.4806286 0.00100566656,23.3301143 0.000724068311,23.2487429 C0.00196310061,23.2921714 0.00517332065,23.2725143 0.0121006376,22.8984 C0.0965801125,18.3168571 0.739074679,16.996 5.32321258,16.1565714 C5.32321258,16.1565714 5.97573205,17.0000571 7.4963626,17.0000571 C9.01699314,17.0000571 9.66939997,16.1565714 9.66939997,16.1565714 C14.3041129,17.0052571 14.9097744,18.346 14.9832716,23.0512571 Z" id="User"></path>
                    </g>
                </g>
            </g>
        </g>
    </g>
</svg>